<svg width="196" height="69" viewBox="0 0 196 69" fill="none" xmlns="http://www.w3.org/2000/svg">
<path d="M27.5987 68C27.1507 68 26.9267 67.7867 26.9267 67.36V51.648C26.9267 51.2427 27.0974 51.04 27.4387 51.04H31.1827C31.524 51.04 31.6947 51.2213 31.6947 51.584V53.472C31.6947 53.5573 31.716 53.6213 31.7587 53.664C31.8014 53.7067 31.844 53.728 31.8867 53.728C31.9507 53.728 32.036 53.6747 32.1427 53.568C32.7827 52.7147 33.54 52.032 34.4147 51.52C35.2894 50.9867 36.1214 50.72 36.9107 50.72C37.6787 50.72 38.0627 50.9013 38.0627 51.264V54.976C38.0627 55.1253 38.02 55.2427 37.9347 55.328C37.8494 55.4133 37.732 55.4347 37.5827 55.392C36.9 55.2213 36.1534 55.136 35.3427 55.136C34.8094 55.136 34.2654 55.2747 33.7107 55.552C33.1774 55.808 32.7294 56.16 32.3667 56.608C32.0254 57.0347 31.8547 57.472 31.8547 57.92V67.264C31.8547 67.7547 31.5774 68 31.0227 68H27.5987ZM44.3404 60.96C44.3404 62.1547 44.7351 63.1253 45.5244 63.872C46.3351 64.5973 47.3378 64.96 48.5324 64.96C49.3004 64.96 50.0044 64.8 50.6444 64.48C51.3058 64.1387 51.9671 63.584 52.6284 62.816C52.7138 62.7307 52.7991 62.688 52.8844 62.688C52.9484 62.688 53.0551 62.72 53.2044 62.784L55.5084 63.744C55.6578 63.808 55.7324 63.9147 55.7324 64.064C55.7324 64.1707 55.6898 64.2773 55.6044 64.384C54.5804 65.8347 53.4818 66.8587 52.3084 67.456C51.1351 68.032 49.6738 68.32 47.9244 68.32C46.2818 68.32 44.7991 67.9573 43.4764 67.232C42.1538 66.5067 41.1191 65.504 40.3724 64.224C39.6258 62.9227 39.2524 61.44 39.2524 59.776C39.2524 57.984 39.6364 56.4053 40.4044 55.04C41.1724 53.6533 42.2071 52.5867 43.5084 51.84C44.8311 51.0933 46.2711 50.72 47.8284 50.72C49.4498 50.72 50.8898 51.0827 52.1484 51.808C53.4071 52.512 54.3884 53.536 55.0924 54.88C55.7964 56.224 56.1484 57.824 56.1484 59.68C56.1484 59.9573 56.1164 60.1493 56.0524 60.256C56.0098 60.3627 55.8604 60.4267 55.6044 60.448H44.7244C44.4684 60.448 44.3404 60.6187 44.3404 60.96ZM50.7724 57.76C51.0071 57.76 51.1564 57.7387 51.2204 57.696C51.2844 57.632 51.3164 57.504 51.3164 57.312C51.3164 56.7573 51.1884 56.2027 50.9324 55.648C50.6764 55.0933 50.3031 54.6347 49.8124 54.272C49.3218 53.9093 48.7244 53.728 48.0204 53.728C46.9538 53.728 46.0791 54.1013 45.3964 54.848C44.7138 55.5947 44.3831 56.5547 44.4044 57.728L50.7724 57.76ZM63.0904 60.96C63.0904 62.1547 63.4851 63.1253 64.2744 63.872C65.0851 64.5973 66.0878 64.96 67.2824 64.96C68.0504 64.96 68.7544 64.8 69.3944 64.48C70.0558 64.1387 70.7171 63.584 71.3784 62.816C71.4638 62.7307 71.5491 62.688 71.6344 62.688C71.6984 62.688 71.8051 62.72 71.9544 62.784L74.2584 63.744C74.4078 63.808 74.4824 63.9147 74.4824 64.064C74.4824 64.1707 74.4398 64.2773 74.3544 64.384C73.3304 65.8347 72.2318 66.8587 71.0584 67.456C69.8851 68.032 68.4238 68.32 66.6744 68.32C65.0318 68.32 63.5491 67.9573 62.2264 67.232C60.9038 66.5067 59.8691 65.504 59.1224 64.224C58.3758 62.9227 58.0024 61.44 58.0024 59.776C58.0024 57.984 58.3864 56.4053 59.1544 55.04C59.9224 53.6533 60.9571 52.5867 62.2584 51.84C63.5811 51.0933 65.0211 50.72 66.5784 50.72C68.1998 50.72 69.6398 51.0827 70.8984 51.808C72.1571 52.512 73.1384 53.536 73.8424 54.88C74.5464 56.224 74.8984 57.824 74.8984 59.68C74.8984 59.9573 74.8664 60.1493 74.8024 60.256C74.7598 60.3627 74.6104 60.4267 74.3544 60.448H63.4744C63.2184 60.448 63.0904 60.6187 63.0904 60.96ZM69.5224 57.76C69.7571 57.76 69.9064 57.7387 69.9704 57.696C70.0344 57.632 70.0664 57.504 70.0664 57.312C70.0664 56.7573 69.9384 56.2027 69.6824 55.648C69.4264 55.0933 69.0531 54.6347 68.5624 54.272C68.0718 53.9093 67.4744 53.728 66.7704 53.728C65.7038 53.728 64.8291 54.1013 64.1464 54.848C63.4638 55.5947 63.1331 56.5547 63.1544 57.728L69.5224 57.76ZM85.2662 68C85.0529 68 84.8822 67.936 84.7542 67.808C84.6475 67.68 84.5942 67.4987 84.5942 67.264V44.864C84.5942 44.4587 84.7755 44.256 85.1382 44.256H91.7622C91.9969 44.256 92.1675 44.288 92.2742 44.352C92.3809 44.416 92.4662 44.544 92.5302 44.736L97.3622 58.144C97.4262 58.3147 97.5009 58.4 97.5862 58.4C97.6715 58.4 97.7462 58.3147 97.8102 58.144L102.418 44.992C102.546 44.5013 102.781 44.256 103.122 44.256H110.002C110.322 44.256 110.482 44.448 110.482 44.832V67.232C110.482 67.5093 110.418 67.712 110.29 67.84C110.162 67.9467 109.96 68 109.682 68H105.554C105.298 68 105.117 67.9573 105.01 67.872C104.925 67.7653 104.882 67.5947 104.882 67.36V51.424C104.882 51.2747 104.85 51.2 104.786 51.2C104.722 51.2 104.658 51.2853 104.594 51.456L98.9942 67.488C98.8875 67.8293 98.6635 68 98.3222 68H95.6662C95.2822 68 95.0475 67.8293 94.9622 67.488L89.4262 51.68C89.3622 51.5093 89.2982 51.424 89.2342 51.424C89.1489 51.424 89.1062 51.52 89.1062 51.712V67.424C89.1062 67.6587 89.0635 67.8187 88.9782 67.904C88.9142 67.968 88.7649 68 88.5302 68H85.2662ZM123.833 66.368C122.425 67.6693 120.751 68.32 118.809 68.32C117.209 68.32 115.94 67.8933 115.001 67.04C114.063 66.1653 113.593 65.0347 113.593 63.648C113.593 61.856 114.415 60.416 116.057 59.328C117.7 58.24 119.961 57.664 122.841 57.6L123.993 57.504C124.121 57.504 124.228 57.472 124.313 57.408C124.42 57.3227 124.473 57.2053 124.473 57.056V56.384C124.473 55.552 124.239 54.912 123.769 54.464C123.3 54.016 122.628 53.792 121.753 53.792C120.26 53.792 119.151 54.432 118.425 55.712C118.34 55.9253 118.201 56.032 118.009 56.032C117.903 56.032 117.807 56.0213 117.721 56L114.521 55.264C114.329 55.2213 114.233 55.104 114.233 54.912C114.233 54.784 114.276 54.624 114.361 54.432C114.873 53.1947 115.78 52.2667 117.081 51.648C118.404 51.0293 120.036 50.72 121.977 50.72C124.516 50.72 126.351 51.1893 127.481 52.128C128.612 53.0453 129.177 54.3573 129.177 56.064V67.296C129.177 67.552 129.135 67.7333 129.049 67.84C128.964 67.9467 128.804 68 128.569 68H125.273C125.06 68 124.9 67.9253 124.793 67.776C124.708 67.6267 124.644 67.4027 124.601 67.104L124.569 66.4C124.548 66.208 124.463 66.112 124.313 66.112C124.228 66.112 124.068 66.1973 123.833 66.368ZM124.473 60.448C124.473 60.256 124.441 60.1173 124.377 60.032C124.313 59.9467 124.185 59.904 123.993 59.904L123.097 59.968C121.86 60.032 120.761 60.3307 119.801 60.864C118.863 61.376 118.393 62.0907 118.393 63.008C118.393 63.648 118.617 64.16 119.065 64.544C119.513 64.9067 120.132 65.088 120.921 65.088C121.903 65.088 122.735 64.8 123.417 64.224C124.121 63.6693 124.473 63.104 124.473 62.528V60.448ZM133.192 68C132.744 68 132.52 67.7867 132.52 67.36V51.648C132.52 51.2427 132.691 51.04 133.032 51.04H136.776C137.118 51.04 137.288 51.2213 137.288 51.584V53.472C137.288 53.5573 137.31 53.6213 137.352 53.664C137.395 53.7067 137.438 53.728 137.48 53.728C137.544 53.728 137.63 53.6747 137.736 53.568C138.376 52.7147 139.134 52.032 140.008 51.52C140.883 50.9867 141.715 50.72 142.504 50.72C143.272 50.72 143.656 50.9013 143.656 51.264V54.976C143.656 55.1253 143.614 55.2427 143.528 55.328C143.443 55.4133 143.326 55.4347 143.176 55.392C142.494 55.2213 141.747 55.136 140.936 55.136C140.403 55.136 139.859 55.2747 139.304 55.552C138.771 55.808 138.323 56.16 137.96 56.608C137.619 57.0347 137.448 57.472 137.448 57.92V67.264C137.448 67.7547 137.171 68 136.616 68H133.192ZM163.041 67.264C163.084 67.328 163.105 67.424 163.105 67.552C163.105 67.68 163.052 67.7867 162.945 67.872C162.86 67.9573 162.732 68 162.561 68H158.369C158.007 68 157.719 67.776 157.505 67.328L154.209 60.736C154.124 60.544 154.028 60.448 153.921 60.448C153.857 60.448 153.772 60.5013 153.665 60.608L151.393 62.848C151.201 62.9973 151.105 63.264 151.105 63.648V67.232C151.105 67.5093 151.041 67.712 150.913 67.84C150.785 67.9467 150.572 68 150.273 68H146.881C146.625 68 146.444 67.9467 146.337 67.84C146.231 67.7333 146.177 67.5627 146.177 67.328V44.864C146.177 44.4587 146.348 44.256 146.689 44.256H150.625C150.945 44.256 151.105 44.448 151.105 44.832V57.952C151.105 58.1227 151.148 58.208 151.233 58.208C151.319 58.208 151.404 58.1547 151.489 58.048L157.505 51.52C157.825 51.2 158.113 51.04 158.369 51.04H161.793C162.156 51.04 162.337 51.1573 162.337 51.392C162.337 51.5413 162.263 51.6907 162.113 51.84L157.633 56.384C157.505 56.5333 157.441 56.672 157.441 56.8C157.441 56.9493 157.484 57.1093 157.569 57.28L163.041 67.264ZM168.434 60.96C168.434 62.1547 168.829 63.1253 169.618 63.872C170.429 64.5973 171.432 64.96 172.626 64.96C173.394 64.96 174.098 64.8 174.738 64.48C175.4 64.1387 176.061 63.584 176.722 62.816C176.808 62.7307 176.893 62.688 176.978 62.688C177.042 62.688 177.149 62.72 177.298 62.784L179.602 63.744C179.752 63.808 179.826 63.9147 179.826 64.064C179.826 64.1707 179.784 64.2773 179.698 64.384C178.674 65.8347 177.576 66.8587 176.402 67.456C175.229 68.032 173.768 68.32 172.018 68.32C170.376 68.32 168.893 67.9573 167.57 67.232C166.248 66.5067 165.213 65.504 164.466 64.224C163.72 62.9227 163.346 61.44 163.346 59.776C163.346 57.984 163.73 56.4053 164.498 55.04C165.266 53.6533 166.301 52.5867 167.602 51.84C168.925 51.0933 170.365 50.72 171.922 50.72C173.544 50.72 174.984 51.0827 176.242 51.808C177.501 52.512 178.482 53.536 179.186 54.88C179.89 56.224 180.242 57.824 180.242 59.68C180.242 59.9573 180.21 60.1493 180.146 60.256C180.104 60.3627 179.954 60.4267 179.698 60.448H168.818C168.562 60.448 168.434 60.6187 168.434 60.96ZM174.866 57.76C175.101 57.76 175.25 57.7387 175.314 57.696C175.378 57.632 175.41 57.504 175.41 57.312C175.41 56.7573 175.282 56.2027 175.026 55.648C174.77 55.0933 174.397 54.6347 173.906 54.272C173.416 53.9093 172.818 53.728 172.114 53.728C171.048 53.728 170.173 54.1013 169.49 54.848C168.808 55.5947 168.477 56.5547 168.498 57.728L174.866 57.76ZM189.656 54.432C189.422 54.432 189.304 54.56 189.304 54.816V62.528C189.304 63.2533 189.475 63.776 189.816 64.096C190.158 64.3947 190.702 64.544 191.448 64.544H193.176C193.326 64.544 193.443 64.5973 193.528 64.704C193.614 64.7893 193.656 64.9173 193.656 65.088L193.624 67.04C193.624 67.4667 193.39 67.7227 192.92 67.808C192.024 67.936 190.755 68 189.112 68C187.619 68 186.456 67.648 185.624 66.944C184.792 66.24 184.376 65.216 184.376 63.872V54.912C184.376 54.592 184.238 54.432 183.96 54.432H182.008C181.603 54.432 181.4 54.2507 181.4 53.888V51.52C181.4 51.2 181.592 51.04 181.976 51.04H184.184C184.355 51.04 184.462 50.9227 184.504 50.688L184.952 45.824C184.995 45.4613 185.155 45.28 185.432 45.28H188.92C189.07 45.28 189.187 45.3333 189.272 45.44C189.379 45.5467 189.432 45.696 189.432 45.888V50.688C189.432 50.9013 189.539 51.008 189.752 51.008H193.112C193.496 51.008 193.688 51.1787 193.688 51.52V53.888C193.688 54.2507 193.475 54.432 193.048 54.432H189.656Z" fill="#243238"/>
<line x1="1.52588e-05" y1="8" x2="66.3056" y2="8" stroke="#243238" stroke-width="16"/>
<line y1="28.5" x2="43.0556" y2="28.5" stroke="#243238" stroke-width="13"/>
<line x1="7" y1="32" x2="7" y2="67" stroke="#243238" stroke-width="14"/>
</svg>
